<?xml version="1.0" encoding="UTF-8" standalone="no"?>
<!-- Created with Inkscape (http://www.inkscape.org/) -->

<svg
   xmlns:a="http://ns.adobe.com/AdobeSVGViewerExtensions/3.0/"
   xmlns:dc="http://purl.org/dc/elements/1.1/"
   xmlns:cc="http://creativecommons.org/ns#"
   xmlns:rdf="http://www.w3.org/1999/02/22-rdf-syntax-ns#"
   xmlns:svg="http://www.w3.org/2000/svg"
   xmlns="http://www.w3.org/2000/svg"
   xmlns:sodipodi="http://sodipodi.sourceforge.net/DTD/sodipodi-0.dtd"
   xmlns:inkscape="http://www.inkscape.org/namespaces/inkscape"
   width="1280"
   height="720"
   viewBox="0 0 338.66666 190.50001"
   version="1.1"
   id="svg1915"
   inkscape:version="0.92.4 (5da689c313, 2019-01-14)"
   sodipodi:docname="SULogo.svg"
   inkscape:export-filename="/home/arved/Documents/SwanseaExperiments/Teaching/SULogoBG.png"
   inkscape:export-xdpi="299.99112"
   inkscape:export-ydpi="299.99112">
  <defs
     id="defs1909">
    <linearGradient
       id="XMLID_1_"
       gradientUnits="userSpaceOnUse"
       x1="334.2124"
       y1="18.832001"
       x2="390.25891"
       y2="74.878502">
      <stop
         offset="0.3427"
         style="stop-color:#E6470F"
         id="stop1846" />
      <stop
         offset="0.5359"
         style="stop-color:#DA420F"
         id="stop1848" />
      <stop
         offset="0.8366"
         style="stop-color:#BA350E"
         id="stop1850" />
      <stop
         offset="1"
         style="stop-color:#A52C0D"
         id="stop1852" />
      <a:midPointStop
         offset="0.3427"
         style="stop-color:#E6470F" />
      <a:midPointStop
         offset="0.6102"
         style="stop-color:#E6470F" />
      <a:midPointStop
         offset="1"
         style="stop-color:#A52C0D" />
    </linearGradient>
  </defs>
  <sodipodi:namedview
     id="base"
     pagecolor="#ffffff"
     bordercolor="#666666"
     borderopacity="1.0"
     inkscape:pageopacity="0.0"
     inkscape:pageshadow="2"
     inkscape:zoom="0.7"
     inkscape:cx="574.09401"
     inkscape:cy="234.61093"
     inkscape:document-units="mm"
     inkscape:current-layer="layer2"
     showgrid="false"
     units="px"
     inkscape:window-width="1850"
     inkscape:window-height="1016"
     inkscape:window-x="70"
     inkscape:window-y="27"
     inkscape:window-maximized="1" />
  <metadata
     id="metadata1912">
    <rdf:RDF>
      <cc:Work
         rdf:about="">
        <dc:format>image/svg+xml</dc:format>
        <dc:type
           rdf:resource="http://purl.org/dc/dcmitype/StillImage" />
        <dc:title />
      </cc:Work>
    </rdf:RDF>
  </metadata>
  <g
     inkscape:groupmode="layer"
     id="layer2"
     inkscape:label="レイヤー 2"
     style="display:inline">
    <path
       style="fill:#faf8f8;fill-opacity:1;stroke:none;stroke-width:0.26458332px;stroke-linecap:butt;stroke-linejoin:miter;stroke-opacity:1"
       d="m -1.1339286,38.931547 104.1174486,1.912517 5.49564,51.760101 47.24703,83.532735 169.33332,25.32441 -339.422605,0.37797 z"
       id="path1045"
       inkscape:connector-curvature="0"
       sodipodi:nodetypes="ccccccc" />
    <g
       style="clip-rule:evenodd;fill-rule:evenodd;stroke-linejoin:round;stroke-miterlimit:1.41420996"
       id="g1043"
       transform="matrix(0.26458333,0,0,0.26458333,18.13285,96.213376)">
      <rect
         style="fill:none"
         height="290"
         width="420"
         y="0"
         x="0"
         id="centred-english-blue" />
      <path
         id="path929"
         style="fill:#242f60;fill-rule:nonzero"
         d="m 394.05,261.705 c 0.625,-2.45 1.584,-6.242 6.194,-6.242 4.799,0 5.328,4.033 5.616,6.242 z m 16.417,7.919 c -1.679,2.16 -3.457,4.416 -7.92,4.416 -7.584,0 -8.399,-6.769 -8.639,-8.593 h 18.912 c -0.048,-2.688 -0.097,-7.247 -3.504,-10.703 -2.977,-2.977 -6.816,-3.313 -8.929,-3.313 -8.687,0 -13.296,5.857 -13.296,13.058 0,7.534 4.657,13.631 13.489,13.631 8.448,0 10.416,-5.04 11.47,-7.728 z m -50.888,7.68 h 2.351 l 6.481,-14.304 6.479,14.304 h 2.305 l 9.263,-24.768 h -5.135 l -4.225,12.239 -0.72,2.305 c -0.527,-1.296 -0.577,-1.536 -1.055,-2.688 l -4.898,-11.856 h -2.11 l -6.385,14.496 c -0.337,-1.2 -0.431,-1.488 -0.767,-2.593 l -4.033,-11.903 h -6.672 z m -15.731,-5.184 c -1.247,0.815 -2.783,1.776 -5.039,1.776 -3.217,0 -4.416,-2.256 -4.416,-4.369 0,-3.119 2.495,-4.608 5.327,-4.608 1.633,0 2.881,0.432 4.128,0.913 z m 6.193,-9.841 c 0,-2.255 -0.048,-5.52 -2.449,-7.967 -1.391,-1.44 -4.08,-2.834 -8.256,-2.834 -7.295,0 -9.215,4.226 -10.271,6.578 l 1.632,0.816 c 0.96,-1.296 2.687,-3.648 6.767,-3.648 1.825,0 4.561,0.623 5.711,3.215 0.53,1.201 0.625,2.496 0.673,3.744 -1.921,-0.576 -3.455,-1.055 -5.807,-1.055 -5.712,0 -10.369,3.168 -10.369,8.832 0,4.416 3.168,7.872 8.161,7.872 4.56,0 6.959,-2.401 8.015,-3.504 v 2.783 h 6.193 z m -37.228,-9.743 h -3.889 v 3.84 h 3.889 v 13.584 c 0,2.16 0.239,4.319 2.016,6.047 1.872,1.872 4.416,2.016 5.568,2.016 3.168,0 4.895,-1.104 6.336,-1.967 l -0.769,-1.537 c -0.767,0.24 -1.439,0.481 -2.447,0.481 -0.48,0 -2.4,0 -3.553,-2.161 -0.479,-0.816 -0.767,-1.824 -0.767,-3.887 v -12.576 h 5.616 v -3.84 h -5.616 v -6.673 h -6.384 z m -15.902,0 h -6.432 v 24.575 h 6.432 v -19.055 c 1.103,-0.72 2.544,-1.68 4.895,-1.68 1.777,0 3.025,0.576 4.225,1.151 v -5.567 c -0.576,-0.097 -1.2,-0.144 -1.824,-0.144 -4.369,0 -6.336,2.543 -7.296,3.791 z m -29.242,9.169 c 0.624,-2.45 1.584,-6.242 6.193,-6.242 4.8,0 5.328,4.033 5.616,6.242 z m 16.416,7.919 c -1.679,2.16 -3.456,4.416 -7.919,4.416 -7.584,0 -8.401,-6.769 -8.64,-8.593 h 18.912 c -0.049,-2.688 -0.097,-7.247 -3.504,-10.703 -2.976,-2.977 -6.816,-3.313 -8.929,-3.313 -8.687,0 -13.296,5.857 -13.296,13.058 0,7.534 4.657,13.631 13.489,13.631 8.448,0 10.416,-5.04 11.471,-7.728 z m -44.586,-10.945 c 0,-0.048 1.536,-3.216 5.232,-3.216 2.446,0 4.031,1.392 4.991,3.361 0.96,1.92 1.105,4.128 1.105,5.713 0,8.062 -3.744,9.742 -6.241,9.742 -2.735,0 -4.175,-1.728 -5.087,-2.832 z m -6.432,18.432 h 6.432 v -2.543 c 0.816,1.008 2.976,3.647 7.152,3.647 4.8,0 10.895,-3.743 10.895,-13.631 0,-7.632 -3.887,-13.057 -10.463,-13.057 -4.658,0 -6.625,2.545 -7.584,3.793 v -12.096 h -6.432 z M 217.611,265.16 h -9.937 l 4.897,-10.992 z m -21.265,11.951 h 5.952 l 3.36,-7.487 h 14.016 l 3.361,7.487 h 7.296 l -15.552,-33.887 h -2.354 z m -17.327,-33.887 h -4.368 v 33.887 h 4.368 z m -13.958,21.6 c 0,7.822 -3.408,10.654 -7.152,10.654 -2.448,0 -4.992,-1.391 -6.192,-4.606 -0.384,-0.912 -0.96,-2.976 -0.96,-6.144 0,-5.137 1.872,-10.369 7.2,-10.369 4.944,0 7.104,4.945 7.104,10.465 z m 4.656,-0.287 c 0,-7.49 -4.416,-12.866 -11.568,-12.866 -6.528,0 -12.048,4.225 -12.048,13.633 0,2.256 0.288,7.008 3.936,10.174 2.688,2.258 5.712,2.642 7.68,2.642 5.328,0 8.16,-2.642 9.36,-4.177 1.632,-2.111 2.64,-5.279 2.64,-9.406 z m -32.966,6.238 c -1.104,0.912 -3.072,2.545 -5.855,2.545 -4.705,0 -6.673,-4.561 -6.673,-9.217 0,-5.519 2.544,-9.311 6.48,-9.311 1.2,0 2.448,0.383 3.552,1.104 1.392,0.912 2.016,1.967 2.496,2.783 z m 0,-18.096 v 3.168 c -1.008,-1.439 -2.928,-4.176 -7.248,-4.176 -5.136,0 -9.84,4.369 -9.84,12.768 0,7.729 4.128,11.953 9.552,11.953 4.752,0 6.768,-2.736 7.536,-3.746 v 1.394 c 0,3.456 0,5.712 -1.728,7.68 -1.296,1.535 -3.312,2.207 -5.328,2.207 -2.256,0 -4.608,-0.865 -6.192,-2.303 -1.104,-1.009 -1.536,-1.92 -1.92,-2.736 l -1.392,0.48 c 1.44,6.864 7.2,7.632 9.792,7.632 4.128,0 6.913,-1.537 8.544,-3.168 2.592,-2.641 2.592,-6 2.592,-9.649 v -21.504 z m -20.817,5.809 c -0.144,-1.105 -0.48,-3.408 -2.976,-5.137 -1.776,-1.248 -4.128,-1.68 -6.048,-1.68 -5.52,0 -8.88,3.168 -8.88,7.248 0,4.705 4.224,6.049 6.672,6.817 2.64,0.815 3.888,1.199 4.848,1.68 0.672,0.336 2.448,1.295 2.448,3.599 0,2.448 -2.16,4.08 -5.472,4.08 -2.448,0 -4.8,-0.863 -6.384,-2.256 -1.104,-0.96 -1.68,-1.967 -2.112,-2.687 -0.336,0.143 -0.912,0.287 -1.296,0.432 0.24,1.152 0.672,3.648 3.216,5.568 1.92,1.392 4.32,1.92 6.72,1.92 2.64,0 5.136,-0.528 7.104,-2.112 1.68,-1.345 2.688,-3.265 2.688,-5.568 0,-5.183 -4.944,-6.625 -7.392,-7.345 -0.336,-0.095 -2.4,-0.719 -2.544,-0.768 -2.496,-0.815 -4.128,-1.776 -4.128,-3.791 0,-2.16 2.064,-3.744 5.232,-3.744 4.56,0 6.24,2.783 7.056,4.128 0.336,-0.097 0.912,-0.288 1.248,-0.384 z m -23.515,-5.809 -7.44,17.041 -6.912,-17.041 h -4.848 l 9.504,22.129 c -3.216,7.295 -5.232,9.551 -9.504,10.848 v 1.296 c 6.192,0.288 9.408,-3.408 12.336,-10.08 l 10.656,-24.193 z m -25.905,2.784 h 5.04 v -2.784 h -5.04 v -2.351 c 0,-2.113 0,-3.217 0.528,-4.08 0.48,-0.817 1.488,-1.537 3.024,-1.537 1.152,0 1.968,0.336 2.64,0.625 0.192,-0.289 0.576,-0.721 0.768,-1.008 -0.528,-0.576 -1.824,-2.113 -4.8,-2.113 -2.016,0 -3.456,0.72 -4.32,1.345 -2.16,1.631 -2.208,3.887 -2.208,6.096 v 3.023 h -3.457 v 2.784 h 3.457 v 21.648 h 4.368 z m -15.979,-9.936 c 0,1.535 1.2,2.545 2.496,2.545 0.816,0 2.592,-0.481 2.592,-2.689 0,-1.248 -0.96,-2.495 -2.496,-2.495 -1.536,0 -2.592,1.152 -2.592,2.639 z m 4.704,7.104 h -4.368 v 24.48 h 4.368 z m -16.67,5.905 c 0.48,-0.673 2.112,-2.929 5.04,-2.929 1.632,0 2.976,0.672 3.744,1.008 v -3.936 c -0.672,-0.287 -1.296,-0.576 -2.544,-0.576 -3.504,0 -5.424,2.785 -6.24,3.937 v -3.361 h -4.416 v 24.432 h 4.416 z m -25.886,-12.48 h 5.136 c 4.128,0 5.616,0.959 6.624,2.159 0.767,0.913 1.392,2.353 1.392,3.985 0,2.928 -1.824,5.856 -6.24,7.055 -2.832,0.769 -5.568,0.672 -6.912,0.624 z m 0,15.649 c 2.784,0.142 3.072,0.142 4.08,0.142 9.936,0 13.872,-4.656 13.872,-10.08 0,-4.32 -2.496,-6.576 -4.656,-7.535 -1.92,-0.864 -4.128,-1.008 -7.344,-1.008 H 8.027 v 33.887 h 4.656 z"
         inkscape:connector-curvature="0" />
      <path
         id="path931"
         style="fill:#242f60;fill-rule:nonzero"
         d="m 413.307,203.859 -7.44,17.04 -6.912,-17.04 h -4.848 l 9.504,22.128 c -3.216,7.296 -5.233,9.552 -9.504,10.849 v 1.295 c 6.191,0.288 9.408,-3.407 12.336,-10.08 l 10.656,-24.192 z m -26.543,2.785 h 5.136 v -2.785 h -5.136 v -6.48 h -4.368 v 6.48 h -3.36 v 2.785 h 3.36 v 15.215 c 0,2.928 0.191,4.896 2.16,6.288 0.72,0.481 2.111,1.152 3.984,1.152 2.832,0 4.368,-1.344 5.28,-2.111 -0.193,-0.336 -0.481,-0.817 -0.672,-1.153 -0.816,0.384 -1.681,0.817 -2.93,0.817 -3.454,0 -3.454,-3.073 -3.454,-6.193 z m -15.816,-9.937 c 0,1.536 1.2,2.545 2.496,2.545 0.815,0 2.592,-0.481 2.592,-2.689 0,-1.248 -0.96,-2.496 -2.496,-2.496 -1.537,0 -2.592,1.153 -2.592,2.64 z m 4.704,7.105 h -4.368 v 24.479 h 4.368 z m -9.345,5.855 c -0.144,-1.104 -0.48,-3.408 -2.976,-5.136 -1.776,-1.248 -4.128,-1.679 -6.048,-1.679 -5.52,0 -8.88,3.168 -8.88,7.248 0,4.704 4.223,6.047 6.672,6.815 2.639,0.816 3.887,1.2 4.847,1.681 0.671,0.336 2.449,1.296 2.449,3.599 0,2.449 -2.161,4.08 -5.472,4.08 -2.448,0 -4.8,-0.864 -6.384,-2.255 -1.104,-0.96 -1.681,-1.969 -2.112,-2.689 -0.336,0.145 -0.912,0.288 -1.296,0.433 0.24,1.151 0.672,3.647 3.216,5.567 1.92,1.393 4.32,1.921 6.719,1.921 2.641,0 5.137,-0.528 7.105,-2.112 1.68,-1.345 2.687,-3.265 2.687,-5.569 0,-5.183 -4.943,-6.624 -7.391,-7.343 -0.336,-0.097 -2.401,-0.721 -2.544,-0.769 -2.496,-0.815 -4.128,-1.775 -4.128,-3.792 0,-2.16 2.063,-3.744 5.231,-3.744 4.561,0 6.241,2.784 7.057,4.128 0.336,-0.096 0.912,-0.287 1.248,-0.384 z m -29.534,0.048 c 0.479,-0.671 2.111,-2.928 5.04,-2.928 1.632,0 2.976,0.672 3.744,1.008 v -3.936 c -0.673,-0.288 -1.298,-0.576 -2.544,-0.576 -3.505,0 -5.425,2.784 -6.24,3.937 v -3.361 h -4.416 v 24.432 h 4.416 z m -27.672,3.744 c 0.672,-5.616 4.56,-7.584 7.487,-7.584 2.401,0 6.721,1.44 7.057,7.584 z m 18.816,2.641 c 0.047,-1.729 0.192,-6.96 -3.6,-10.464 -1.92,-1.729 -4.512,-2.784 -7.632,-2.784 -6.576,0 -12.192,4.847 -12.192,13.343 0,8.737 5.759,13.104 12.24,13.104 8.399,0 10.271,-6.096 10.752,-7.823 -0.336,-0.097 -0.864,-0.336 -1.2,-0.481 -0.865,1.344 -3.312,4.992 -8.496,4.992 -0.72,0 -4.176,0 -6.624,-3.168 -1.873,-2.496 -2.016,-5.328 -2.114,-6.719 z m -27.988,-12.241 -6.962,16.321 c -0.383,0.864 -0.43,1.151 -0.526,1.632 -0.192,-0.817 -0.433,-1.441 -0.481,-1.584 l -6.671,-16.369 h -4.752 l 10.704,24.72 h 1.488 l 10.8,-24.72 z m -27.364,-7.152 c 0,1.536 1.2,2.545 2.496,2.545 0.815,0 2.592,-0.481 2.592,-2.689 0,-1.248 -0.96,-2.496 -2.496,-2.496 -1.536,0 -2.592,1.153 -2.592,2.64 z m 4.704,7.105 h -4.368 v 24.479 h 4.368 z m -10.339,7.295 c 0,-2.255 -0.049,-4.56 -2.064,-6.432 -0.482,-0.384 -2.067,-1.823 -5.616,-1.823 -5.088,0 -7.392,3.12 -8.352,4.416 v -3.409 h -4.32 v 24.432 h 4.32 V 210.1 c 1.68,-2.832 4.224,-4.08 6.576,-4.08 1.44,0 4.079,0.576 4.799,3.215 0.336,1.296 0.336,2.544 0.336,5.184 v 13.872 h 4.321 z m -26.784,-16.752 h -4.608 v 26.4 c -2.161,2.448 -6,5.28 -10.416,5.28 -3.216,0 -5.808,-1.488 -6.96,-3.311 -0.865,-1.345 -1.201,-3.217 -1.201,-6.865 v -21.504 h -4.607 v 23.568 c 0,3.553 0.576,6 2.592,8.064 1.824,1.92 4.895,3.265 8.928,3.265 4.51,0 8.255,-1.44 11.664,-6 v 5.039 h 4.608 z m -54.24,28.944 c -1.248,0.816 -2.784,1.776 -5.04,1.776 -3.216,0 -4.416,-2.256 -4.416,-4.368 0,-3.12 2.496,-4.607 5.328,-4.607 1.632,0 2.88,0.431 4.128,0.912 z m 6.192,-9.84 c 0,-2.256 -0.048,-5.52 -2.448,-7.968 -1.392,-1.44 -4.08,-2.832 -8.256,-2.832 -7.296,0 -9.216,4.224 -10.272,6.576 l 1.632,0.816 c 0.96,-1.296 2.688,-3.648 6.768,-3.648 1.824,0 4.56,0.624 5.712,3.216 0.528,1.2 0.624,2.496 0.672,3.744 -1.92,-0.576 -3.456,-1.055 -5.808,-1.055 -5.712,0 -10.368,3.168 -10.368,8.832 0,4.416 3.168,7.872 8.16,7.872 4.56,0 6.96,-2.401 8.016,-3.505 v 2.784 h 6.192 z m -43.723,-0.576 c 0.624,-2.447 1.584,-6.239 6.192,-6.239 4.8,0 5.329,4.031 5.616,6.239 z m 16.416,7.921 c -1.68,2.159 -3.456,4.416 -7.92,4.416 -7.584,0 -8.4,-6.769 -8.64,-8.592 h 18.912 c -0.048,-2.689 -0.096,-7.249 -3.504,-10.705 -2.976,-2.976 -6.816,-3.312 -8.928,-3.312 -8.688,0 -13.296,5.856 -13.296,13.056 0,7.536 4.656,13.632 13.488,13.632 8.448,0 10.416,-5.039 11.472,-7.728 z m -46.842,1.055 c 0.144,1.153 0.432,2.928 2.064,4.608 1.056,1.056 3.504,2.832 8.304,2.832 7.056,0 10.464,-3.984 10.464,-8.255 0,-2.065 -0.768,-3.889 -1.92,-5.089 -1.392,-1.439 -3.264,-1.968 -4.608,-2.304 -0.912,-0.24 -1.824,-0.431 -2.736,-0.624 -2.16,-0.576 -4.368,-1.2 -4.368,-3.408 0,-1.584 1.392,-3.264 4.896,-3.264 4.848,0 6.048,2.497 6.48,3.36 l 1.68,-0.48 c -0.192,-0.96 -0.48,-2.399 -1.92,-3.887 -1.536,-1.584 -4.032,-2.689 -7.296,-2.689 -7.152,0 -10.32,4.32 -10.32,8.256 0,4.464 3.696,5.856 4.656,6.192 1.104,0.432 2.208,0.672 3.312,0.913 3.12,0.671 4.704,1.295 5.424,2.879 0.144,0.432 0.239,0.816 0.239,1.201 0,0.143 0,2.399 -2.687,3.263 -0.816,0.288 -1.632,0.336 -2.4,0.336 -2.688,0 -4.992,-0.912 -6.336,-2.256 -0.672,-0.672 -0.96,-1.343 -1.248,-1.967 z m -3.639,-10.175 c 0,-2.065 -0.144,-4.513 -1.968,-6.432 -1.296,-1.345 -3.36,-2.257 -5.904,-2.257 -4.656,0 -6.768,2.496 -8.016,3.937 v -3.217 h -6.384 v 24.576 h 6.384 v -18.288 c 1.104,-1.248 2.688,-3.024 5.328,-3.024 2.304,0 3.504,1.488 3.888,2.88 0.24,0.816 0.24,1.68 0.24,2.496 v 15.936 h 6.432 z m -33.763,11.615 c -1.248,0.816 -2.784,1.776 -5.04,1.776 -3.216,0 -4.416,-2.256 -4.416,-4.368 0,-3.12 2.496,-4.607 5.328,-4.607 1.632,0 2.88,0.431 4.128,0.912 z m 6.192,-9.84 c 0,-2.256 -0.048,-5.52 -2.448,-7.968 -1.392,-1.44 -4.08,-2.832 -8.256,-2.832 -7.296,0 -9.216,4.224 -10.272,6.576 l 1.631,0.816 c 0.961,-1.296 2.689,-3.648 6.769,-3.648 1.824,0 4.56,0.624 5.712,3.216 0.528,1.2 0.624,2.496 0.672,3.744 -1.92,-0.576 -3.456,-1.055 -5.808,-1.055 -5.712,0 -10.368,3.168 -10.368,8.832 0,4.416 3.168,7.872 8.16,7.872 4.56,0 6.96,-2.401 8.016,-3.505 v 2.784 h 6.192 z m -48.921,15.024 h 2.352 l 6.48,-14.303 6.48,14.303 h 2.304 l 9.264,-24.768 h -5.136 l -4.224,12.24 -0.72,2.304 c -0.528,-1.296 -0.576,-1.535 -1.056,-2.688 l -4.896,-11.856 h -2.112 l -6.384,14.496 c -0.336,-1.199 -0.432,-1.487 -0.768,-2.592 L 35.37,203.715 H 28.698 Z M 2.5,219.171 c 0.288,1.776 0.72,4.513 3.072,6.816 3.216,3.216 7.92,3.312 9.648,3.312 1.44,0 7.056,0 10.704,-3.792 1.728,-1.823 2.976,-4.512 2.976,-7.44 0,-2.639 -1.056,-4.992 -2.688,-6.528 -2.208,-2.208 -5.712,-3.023 -8.064,-3.552 -3.648,-0.719 -6.24,-1.248 -7.248,-3.744 -0.24,-0.624 -0.288,-1.248 -0.288,-1.632 0,-3.504 3.408,-5.232 7.248,-5.232 2.928,0 5.28,0.96 6.768,2.4 0.864,0.865 1.248,1.68 1.68,2.737 l 1.968,-0.529 c -0.144,-1.151 -0.384,-3.504 -2.448,-5.616 -2.928,-3.023 -7.584,-3.072 -8.976,-3.072 -10.992,0 -13.056,6.816 -13.056,10.56 0,7.777 7.152,9.216 10.992,9.984 4.128,0.816 7.056,1.872 7.056,5.52 0,2.88 -2.352,5.808 -7.152,5.808 -2.88,0 -5.712,-0.863 -7.776,-2.88 -1.248,-1.247 -1.872,-2.544 -2.496,-3.792 z"
         inkscape:connector-curvature="0" />
      <path
         id="path933"
         style="fill:#242f60;fill-rule:nonzero"
         d="m 229.701,126.939 c -1.735,-0.699 -3.775,-1.051 -6.074,-1.051 -5.254,0 -10.502,1.8 -12.706,2.667 -0.37,0.172 -1.102,0.446 -0.822,0.339 0,0 -0.19,-0.064 -0.799,-0.331 -2.189,-0.864 -7.456,-2.675 -12.73,-2.675 -2.299,0 -4.338,0.352 -6.073,1.051 v -26.783 c 1.012,-0.34 3.774,-1.135 7.168,-1.135 4.428,0 8.627,1.522 11.753,4.115 l 0.681,0.782 0.68,-0.782 c 3.128,-2.593 7.327,-4.115 11.754,-4.115 3.393,0 6.155,0.795 7.168,1.135 z m -51.23,-31.766 c -1.944,0 -3.518,-1.575 -3.518,-3.519 0,-1.943 1.574,-3.519 3.518,-3.519 1.944,0 3.518,1.576 3.518,3.519 0,1.944 -1.574,3.519 -3.518,3.519 z m 72.808,26.167 c -2.01,-4.063 -5.965,-10.203 -7.001,-11.471 l -0.207,0.47 c -0.021,0.084 -1.833,7.959 -2.42,11.139 0.474,-0.24 1.282,-0.704 1.971,-1.097 l 0.618,-0.354 0.018,0.467 c 0.219,5.39 -0.745,10.071 -2.866,13.912 l -0.039,0.072 c -0.39,0.067 -0.804,0.122 -1.216,0.162 l -6.889,-5.14 v -25.665 c 0,-0.33 -0.128,-0.64 -0.36,-0.869 -0.171,-0.173 -0.404,-0.373 -0.684,-0.558 l 14.535,-11.232 c 0.667,-0.515 0.759,-1.485 0.201,-2.118 -0.209,-0.239 -0.418,-0.479 -0.627,-0.719 -0.507,-0.576 -1.373,-0.664 -1.983,-0.198 l -14.184,10.797 c -1.411,-0.449 -4.364,-1.239 -7.613,-1.239 -3.972,0 -7.493,0.991 -10.505,2.951 v -4.331 c 1.429,-0.077 3.477,-0.36 5.551,-1.243 0.333,-0.141 0.553,-0.488 0.562,-0.877 l 0.082,-3.448 c 0.009,-0.373 -0.179,-0.718 -0.484,-0.889 -0.8,-0.443 -2.61,-1.22 -5.711,-1.459 v -0.665 c 0,-0.627 -0.507,-1.134 -1.132,-1.134 h -1.594 c -0.627,0 -1.133,0.507 -1.133,1.134 v 0.665 c -3.101,0.239 -4.91,1.016 -5.71,1.459 -0.306,0.171 -0.493,0.516 -0.485,0.889 l 0.083,3.448 c 0.009,0.389 0.229,0.736 0.562,0.877 2.074,0.883 4.122,1.166 5.55,1.243 v 4.331 c -3.011,-1.96 -6.532,-2.951 -10.504,-2.951 -2.81,0 -5.399,0.591 -6.96,1.041 l -6.269,-4.64 c 0.289,-0.726 0.448,-1.518 0.448,-2.347 0,-3.514 -2.848,-6.362 -6.362,-6.362 -3.514,0 -6.364,2.848 -6.364,6.362 0,3.515 2.85,6.364 6.364,6.364 1.278,0 2.468,-0.378 3.466,-1.028 l 6.705,4.963 c -0.609,0.226 -1.085,0.616 -1.384,0.914 -0.231,0.229 -0.359,0.539 -0.359,0.869 v 25.199 l -4.796,3.55 c -0.75,0.021 -1.516,0.197 -2.012,0.54 -3.817,-5.506 -6.871,-12.613 -6.63,-19.407 -3.211,7.183 -0.466,15.733 3.336,22.253 l -1.381,0.929 c -0.181,0.122 0.135,0.912 0.708,1.763 l 0.589,0.875 c 0.572,0.85 1.183,1.442 1.366,1.32 l 1.58,-1.064 c 5.097,5.474 12.368,10.476 20.079,9.54 -6.578,-1.9 -12.232,-6.506 -16.41,-11.838 0.384,-0.304 0.541,-1.034 0.782,-1.595 l 6.586,-4.875 c 1.919,-0.621 4.248,-1.209 6.206,-1.209 3.104,0 6.037,0.462 8.469,1.233 -0.006,0.013 0.028,0.021 0.096,0.032 l 2.658,0.854 c -0.005,0.047 -0.007,0.096 -0.007,0.146 v 12.184 c 0,0.828 0.672,1.502 1.502,1.502 h 0.854 c 0.831,0 1.503,-0.674 1.503,-1.502 v -12.184 c 0,-0.05 -0.002,-0.099 -0.007,-0.146 l 2.66,-0.854 c 0.067,-0.011 0.101,-0.019 0.096,-0.032 2.431,-0.771 5.364,-1.233 8.468,-1.233 1.604,0 3.458,0.395 5.13,0.88 l 9.115,6.786 c 0.13,0.539 0.247,1.108 0.325,1.666 -3.817,3.763 -8.395,5.484 -11.583,6.266 l -0.39,0.094 0.04,-0.399 c 0.055,-0.547 0.121,-1.103 0.183,-1.603 0.055,-0.444 0.112,-0.927 0.142,-1.263 -2.631,1.776 -8.961,6.378 -8.999,6.401 L 216.839,149 c 1.659,0.342 8.465,1.129 12.798,1.189 -0.473,-0.385 -1.137,-0.922 -1.703,-1.375 l -0.434,-0.344 0.533,-0.15 c 3.235,-0.912 7.76,-2.721 11.697,-6.244 2.005,-0.438 4.815,-1.654 4.815,-1.654 0,0 0,-2.238 -0.164,-4.165 2.582,-4.44 3.758,-9.838 3.487,-16.06 l -0.022,-0.475 0.429,0.209 c 0.781,0.381 2.163,1.022 3.004,1.409 z"
         inkscape:connector-curvature="0" />
      <path
         id="path935"
         style="fill:#242f60;fill-rule:nonzero"
         d="m 212.175,105.418 c -0.038,0.124 -0.024,0.254 0.039,0.367 l 0.044,0.077 c 0.08,0.15 0.238,0.244 0.409,0.244 0.071,0 0.138,-0.016 0.202,-0.046 1.214,-0.576 4.468,-1.915 8.465,-1.915 1.292,0 2.562,0.143 3.772,0.424 l 0.078,0.013 h 0.027 c 0.21,0 0.397,-0.141 0.454,-0.35 l 0.019,-0.084 c 0.031,-0.124 0.013,-0.252 -0.054,-0.363 -0.065,-0.108 -0.17,-0.184 -0.295,-0.215 -1.305,-0.305 -2.669,-0.461 -4.053,-0.461 -4.225,0 -7.607,1.418 -8.86,2.028 -0.118,0.054 -0.208,0.158 -0.247,0.281 z"
         inkscape:connector-curvature="0" />
      <path
         id="path937"
         style="fill:#242f60;fill-rule:nonzero"
         d="m 212.258,108.883 c 0.081,0.151 0.239,0.245 0.409,0.245 0.071,0 0.137,-0.017 0.202,-0.045 1.205,-0.578 4.44,-1.916 8.46,-1.916 1.295,0 2.565,0.142 3.777,0.424 l 0.079,0.013 h 0.026 c 0.21,0 0.396,-0.142 0.455,-0.352 l 0.018,-0.081 c 0.032,-0.127 0.013,-0.256 -0.053,-0.365 -0.065,-0.109 -0.17,-0.183 -0.295,-0.214 -1.306,-0.304 -2.669,-0.462 -4.054,-0.462 -4.22,0 -7.601,1.417 -8.862,2.029 -0.121,0.061 -0.208,0.162 -0.245,0.285 -0.036,0.122 -0.025,0.253 0.039,0.367 z"
         inkscape:connector-curvature="0" />
      <path
         id="path939"
         style="fill:#242f60;fill-rule:nonzero"
         d="m 225.336,109.421 c -1.305,-0.306 -2.67,-0.46 -4.055,-0.46 -4.219,0 -7.6,1.416 -8.861,2.026 -0.12,0.061 -0.207,0.163 -0.244,0.287 -0.039,0.123 -0.025,0.252 0.039,0.367 l 0.042,0.078 c 0.082,0.15 0.24,0.242 0.411,0.242 0.07,0 0.138,-0.016 0.202,-0.045 1.213,-0.577 4.467,-1.915 8.463,-1.915 1.293,0 2.563,0.143 3.773,0.424 l 0.078,0.013 h 0.026 c 0.212,0 0.398,-0.142 0.455,-0.35 l 0.019,-0.084 c 0.032,-0.123 0.014,-0.251 -0.051,-0.359 -0.065,-0.111 -0.172,-0.191 -0.297,-0.224 z"
         inkscape:connector-curvature="0" />
      <path
         id="path941"
         style="fill:#242f60;fill-rule:nonzero"
         d="m 212.253,114.829 c 0.082,0.15 0.24,0.243 0.41,0.243 0.069,0 0.135,-0.015 0.202,-0.048 1.209,-0.574 4.455,-1.916 8.465,-1.916 1.294,0 2.565,0.144 3.776,0.427 l 0.078,0.011 h 0.026 c 0.212,0 0.398,-0.138 0.455,-0.35 l 0.018,-0.081 c 0.033,-0.127 0.015,-0.257 -0.053,-0.365 -0.065,-0.109 -0.17,-0.185 -0.294,-0.214 -1.307,-0.306 -2.673,-0.46 -4.058,-0.46 -4.236,0 -7.607,1.416 -8.862,2.026 -0.119,0.06 -0.207,0.162 -0.246,0.291 -0.037,0.121 -0.024,0.252 0.038,0.36 z"
         inkscape:connector-curvature="0" />
      <path
         id="path943"
         style="fill:#242f60;fill-rule:nonzero"
         d="m 225.331,115.416 c -1.306,-0.307 -2.67,-0.461 -4.055,-0.461 -4.224,0 -7.603,1.417 -8.859,2.026 -0.121,0.057 -0.207,0.157 -0.245,0.281 -0.04,0.124 -0.026,0.255 0.037,0.365 l 0.043,0.081 c 0.083,0.149 0.241,0.241 0.412,0.241 0.068,0 0.134,-0.014 0.202,-0.045 1.207,-0.575 4.449,-1.917 8.463,-1.917 1.294,0 2.564,0.143 3.777,0.427 l 0.078,0.011 h 0.025 c 0.211,0 0.398,-0.138 0.457,-0.348 l 0.018,-0.084 c 0.032,-0.123 0.013,-0.253 -0.054,-0.363 -0.065,-0.109 -0.172,-0.186 -0.299,-0.214 z"
         inkscape:connector-curvature="0" />
      <path
         id="path945"
         style="fill:#242f60;fill-rule:nonzero"
         d="m 225.336,118.373 c -1.308,-0.307 -2.67,-0.462 -4.055,-0.462 -4.218,0 -7.6,1.417 -8.861,2.027 -0.12,0.062 -0.207,0.164 -0.244,0.288 -0.037,0.12 -0.026,0.25 0.038,0.363 l 0.043,0.076 c 0.082,0.149 0.24,0.243 0.411,0.243 0.07,0 0.138,-0.015 0.202,-0.047 1.213,-0.575 4.467,-1.915 8.464,-1.915 1.293,0 2.562,0.143 3.772,0.426 l 0.078,0.011 h 0.026 c 0.212,0 0.398,-0.139 0.455,-0.348 l 0.019,-0.085 c 0.032,-0.123 0.014,-0.253 -0.054,-0.364 -0.066,-0.108 -0.171,-0.185 -0.294,-0.213 z"
         inkscape:connector-curvature="0" />
      <path
         id="path947"
         style="fill:#242f60;fill-rule:nonzero"
         d="m 225.341,121.339 c -1.306,-0.305 -2.67,-0.461 -4.055,-0.461 -4.221,0 -7.601,1.416 -8.861,2.026 -0.119,0.06 -0.208,0.163 -0.244,0.286 -0.038,0.124 -0.024,0.255 0.076,0.439 0.081,0.151 0.239,0.246 0.411,0.246 0.07,0 0.138,-0.016 0.202,-0.046 1.213,-0.576 4.466,-1.915 8.463,-1.915 1.293,0 2.562,0.143 3.773,0.424 l 0.078,0.013 h 0.026 c 0.212,0 0.398,-0.142 0.454,-0.345 l 0.019,-0.084 c 0.033,-0.128 0.015,-0.259 -0.053,-0.368 -0.062,-0.108 -0.169,-0.184 -0.289,-0.215 z"
         inkscape:connector-curvature="0" />
      <path
         id="path949"
         style="fill:#242f60;fill-rule:nonzero"
         d="m 205.264,114.103 c -1.254,-0.61 -4.626,-2.027 -8.862,-2.027 -1.385,0 -2.751,0.155 -4.058,0.461 -0.125,0.028 -0.23,0.105 -0.295,0.213 -0.065,0.107 -0.084,0.239 -0.053,0.361 l 0.019,0.087 c 0.057,0.205 0.244,0.349 0.454,0.349 l 0.079,-0.005 0.026,-0.006 c 1.211,-0.283 2.481,-0.427 3.777,-0.427 4.008,0 7.256,1.341 8.465,1.916 0.065,0.032 0.131,0.046 0.201,0.046 0.173,0 0.326,-0.093 0.409,-0.243 l 0.044,-0.074 c 0.063,-0.112 0.077,-0.242 0.038,-0.363 -0.037,-0.125 -0.126,-0.229 -0.244,-0.288 z"
         inkscape:connector-curvature="0" />
      <path
         id="path951"
         style="fill:#242f60;fill-rule:nonzero"
         d="m 205.264,116.981 c -1.258,-0.609 -4.638,-2.026 -8.86,-2.026 -1.385,0 -2.749,0.154 -4.056,0.461 -0.125,0.028 -0.231,0.105 -0.301,0.216 -0.064,0.11 -0.082,0.24 -0.051,0.358 l 0.019,0.087 c 0.057,0.207 0.244,0.35 0.454,0.35 l 0.079,-0.007 0.026,-0.005 c 1.211,-0.284 2.482,-0.427 3.778,-0.427 4.01,0 7.256,1.341 8.464,1.916 0.065,0.032 0.131,0.047 0.201,0.047 0.171,0 0.328,-0.095 0.408,-0.243 l 0.044,-0.079 c 0.064,-0.112 0.078,-0.243 0.039,-0.368 -0.04,-0.125 -0.127,-0.225 -0.244,-0.28 z"
         inkscape:connector-curvature="0" />
      <path
         id="path953"
         style="fill:#242f60;fill-rule:nonzero"
         d="m 205.258,119.938 c -1.258,-0.609 -4.64,-2.026 -8.859,-2.026 -1.384,0 -2.747,0.153 -4.056,0.462 -0.124,0.027 -0.229,0.104 -0.294,0.213 -0.066,0.11 -0.084,0.242 -0.053,0.361 l 0.019,0.087 c 0.057,0.204 0.243,0.348 0.454,0.348 l 0.079,-0.005 0.026,-0.005 c 1.21,-0.285 2.478,-0.427 3.772,-0.427 3.997,0 7.251,1.34 8.463,1.914 0.064,0.032 0.132,0.046 0.203,0.046 0.172,0 0.327,-0.092 0.41,-0.242 l 0.044,-0.074 c 0.063,-0.113 0.076,-0.242 0.039,-0.361 -0.037,-0.125 -0.126,-0.23 -0.247,-0.291 z"
         inkscape:connector-curvature="0" />
      <path
         id="path955"
         style="fill:#242f60;fill-rule:nonzero"
         d="m 205.254,122.904 c -1.258,-0.609 -4.638,-2.026 -8.858,-2.026 -1.386,0 -2.75,0.156 -4.058,0.461 -0.121,0.031 -0.222,0.105 -0.288,0.215 -0.067,0.113 -0.086,0.243 -0.054,0.365 l 0.019,0.083 c 0.057,0.206 0.244,0.349 0.454,0.349 l 0.079,-0.006 0.026,-0.007 c 1.209,-0.281 2.479,-0.424 3.772,-0.424 3.997,0 7.253,1.339 8.464,1.914 0.063,0.031 0.131,0.047 0.202,0.047 0.17,0 0.326,-0.094 0.409,-0.245 l 0.041,-0.073 c 0.061,-0.111 0.075,-0.24 0.037,-0.365 -0.038,-0.124 -0.127,-0.229 -0.245,-0.288 z"
         inkscape:connector-curvature="0" />
      <path
         id="path957"
         style="fill:#242f60;fill-rule:nonzero"
         d="m 193.507,110.238 c 0.922,-0.157 1.878,-0.238 2.84,-0.238 3.996,0 7.251,1.339 8.466,1.917 0.062,0.028 0.13,0.044 0.198,0.044 0.172,0 0.329,-0.093 0.41,-0.242 l 0.044,-0.078 c 0.063,-0.114 0.077,-0.244 0.04,-0.364 -0.037,-0.126 -0.125,-0.23 -0.246,-0.29 -1.224,-0.592 -4.477,-1.959 -8.562,-2.025 l 0.005,-1.793 c 3.858,0.076 6.946,1.356 8.107,1.913 0.064,0.029 0.132,0.045 0.202,0.045 0.173,0 0.328,-0.094 0.411,-0.244 l 0.044,-0.072 c 0.062,-0.115 0.076,-0.245 0.038,-0.367 -0.039,-0.123 -0.127,-0.228 -0.245,-0.286 -0.666,-0.322 -4.157,-1.909 -8.555,-2.019 l 0.005,-1.99 c 3.836,0.079 6.933,1.356 8.1,1.911 0.064,0.03 0.132,0.046 0.202,0.046 0.172,0 0.329,-0.093 0.41,-0.244 l 0.044,-0.076 c 0.063,-0.114 0.078,-0.243 0.038,-0.369 -0.039,-0.125 -0.128,-0.226 -0.244,-0.28 -1.257,-0.61 -4.638,-2.028 -8.86,-2.028 -1.385,0 -2.749,0.157 -4.049,0.467 l -0.369,0.185 0.009,6.789 z"
         inkscape:connector-curvature="0" />
      <path
         id="path959"
         style="fill:#242f60;fill-rule:nonzero"
         d="m 221.586,46.784 c -0.035,0.004 -0.098,-0.002 -0.132,10e-4 0.003,0.004 0.132,-10e-4 0.132,-10e-4 -2.013,0.421 -4.96,4.284 -5.482,4.991 -0.146,1.135 0.044,1.639 0.626,2.464 0.61,0.857 0.291,1.718 -0.298,2.71 -0.428,0.747 -1.28,2.793 -1.552,3.785 -0.494,0.542 -1.194,1.019 -1.808,1.203 -0.127,-0.07 -0.178,-0.444 -0.178,-0.444 -0.969,-1.427 -2.73,-1.259 -2.73,-1.259 -1.902,0.324 -1.975,0.925 -1.975,0.925 0.408,-0.045 1.647,0.445 1.647,0.445 0.005,0.292 0.504,0.562 0.504,0.562 -1.156,-0.214 -2.132,0.456 -2.132,0.456 -1.764,1.216 -1.142,2.549 -1.142,2.549 0.004,-1.048 1.535,-1.293 1.535,-1.293 0.667,0.612 3.263,-0.447 3.263,-0.447 l -2.285,1.872 c -0.86,1.148 -0.35,2.296 -0.35,2.296 0.035,-0.846 1.196,-1.136 1.196,-1.136 0.776,-0.082 1.046,-0.475 1.046,-0.475 1.408,-0.301 1.517,-1.749 1.517,-1.749 2.137,-0.892 4.297,-0.417 4.297,-0.417 1.323,0.764 2.247,1.363 2.247,1.363 l 0.251,-0.389 c 0.985,-0.212 1.462,0.986 1.462,0.986 0.336,-1.581 -0.91,-2.111 -0.91,-2.111 -0.508,-0.604 -1.459,-0.567 -1.459,-0.567 l -1.596,-0.448 c -0.013,-0.021 -0.481,-0.172 -0.493,-0.196 -0.142,-0.395 -0.355,-0.856 -0.283,-1.285 0.111,-0.441 0.246,-0.791 0.405,-1.124 0.833,-1.117 2.092,-2.474 2.512,-3.361 0.447,-0.931 0.754,-2.429 1.955,-3.068 0.488,-0.247 1.118,-0.482 1.662,-0.734 l 0.002,0.002 c 0,0 0.021,-0.011 0.051,-0.028 0.289,-0.136 0.55,-0.276 0.744,-0.425 0.978,-0.524 1.607,-0.969 1.607,-0.969 -0.81,-0.746 -2.272,-2.182 -3.856,-4.684 z"
         inkscape:connector-curvature="0" />
      <path
         id="path961"
         style="fill:#242f60;fill-rule:nonzero"
         d="m 216.748,45.117 c 1.47,0.364 2.289,1.626 2.435,1.87 0.596,-0.489 1.207,-0.873 1.763,-0.989 0,0 -1.571,-2.639 -4.094,-2.438 -0.041,0 -0.085,0.004 -0.128,0.006 -0.004,0 -0.009,0 -0.013,0 l -0.001,0.002 c -1.286,0.088 -3.599,1.301 -8.89,4.759 -8.166,5.339 -12.496,2.419 -12.496,2.419 -1.534,4.127 -4.011,5.145 -4.011,5.145 0,0 0.732,0.699 2.112,1.362 0.041,-0.037 0.075,-0.068 0.116,-0.109 0.447,-0.433 1.014,-1.052 1.526,-1.723 0.259,-0.333 0.5,-0.681 0.715,-1.016 0.214,-0.336 0.407,-0.657 0.553,-0.943 0.155,-0.281 0.27,-0.523 0.345,-0.696 0.079,-0.172 0.124,-0.27 0.124,-0.27 0,0 -0.023,0.105 -0.062,0.291 -0.036,0.185 -0.094,0.45 -0.185,0.765 -0.081,0.317 -0.199,0.68 -0.34,1.067 -0.14,0.387 -0.306,0.797 -0.493,1.196 -0.328,0.719 -0.714,1.404 -1.055,1.947 0.824,0.282 1.79,0.512 2.895,0.607 0.033,-0.047 0.064,-0.088 0.098,-0.139 0.356,-0.51 0.796,-1.226 1.17,-1.982 0.191,-0.377 0.361,-0.765 0.509,-1.134 0.146,-0.37 0.272,-0.722 0.363,-1.03 0.097,-0.306 0.164,-0.567 0.205,-0.75 0.045,-0.184 0.07,-0.289 0.07,-0.289 0,0 -0.001,0.108 -0.004,0.297 -0.001,0.189 -0.008,0.461 -0.036,0.786 -0.02,0.327 -0.067,0.707 -0.131,1.114 -0.064,0.406 -0.149,0.84 -0.256,1.267 -0.164,0.68 -0.377,1.345 -0.584,1.904 1.12,-0.024 2.353,-0.193 3.692,-0.566 0.022,-0.064 0.043,-0.121 0.067,-0.192 0.197,-0.59 0.416,-1.401 0.56,-2.232 0.076,-0.415 0.131,-0.835 0.167,-1.231 0.037,-0.397 0.059,-0.77 0.058,-1.091 0.007,-0.321 -0.003,-0.59 -0.015,-0.777 -0.009,-0.189 -0.014,-0.297 -0.014,-0.297 0,0 0.029,0.103 0.08,0.286 0.053,0.182 0.123,0.444 0.187,0.764 0.073,0.319 0.135,0.696 0.189,1.105 0.054,0.408 0.095,0.847 0.113,1.288 0.035,0.675 0.021,1.352 -0.017,1.932 0.883,-0.324 1.806,-0.733 2.77,-1.252 0.38,-0.204 0.746,-0.406 1.109,-0.607 -0.003,-0.547 -0.037,-1.191 -0.117,-1.837 -0.048,-0.419 -0.118,-0.837 -0.198,-1.227 -0.081,-0.39 -0.169,-0.753 -0.262,-1.061 -0.088,-0.308 -0.176,-0.562 -0.242,-0.738 -0.063,-0.179 -0.099,-0.28 -0.099,-0.28 0,0 0.057,0.091 0.158,0.25 0.105,0.16 0.248,0.39 0.403,0.677 0.163,0.284 0.333,0.627 0.502,1.002 0.171,0.375 0.339,0.783 0.484,1.2 0.173,0.478 0.317,0.962 0.436,1.417 1.159,-0.66 2.209,-1.295 3.14,-1.9 -0.074,-0.573 -0.212,-1.314 -0.417,-2.05 -0.104,-0.384 -0.228,-0.765 -0.358,-1.119 -0.13,-0.353 -0.263,-0.681 -0.394,-0.954 -0.123,-0.278 -0.241,-0.504 -0.326,-0.66 -0.084,-0.158 -0.132,-0.248 -0.132,-0.248 0,0 0.067,0.077 0.185,0.21 0.122,0.133 0.289,0.328 0.478,0.572 0.195,0.242 0.404,0.537 0.622,0.861 0.215,0.324 0.435,0.68 0.635,1.048 0.303,0.546 0.571,1.117 0.781,1.619 0.588,-0.412 1.113,-0.807 1.565,-1.182 h 10e-4 l 0.491,-0.372 c 0,0 0.086,-0.589 -0.135,-1.098 -0.12,-0.29 -0.251,-0.587 -0.399,-0.882 -0.173,-0.359 -0.366,-0.71 -0.56,-1.032 -0.194,-0.323 -0.386,-0.621 -0.565,-0.864 -0.174,-0.25 -0.333,-0.451 -0.445,-0.587 -0.113,-0.14 -0.176,-0.22 -0.176,-0.22 0,0 0.08,0.064 0.221,0.173 0.144,0.108 0.347,0.266 0.577,0.472 0.236,0.2 0.498,0.451 0.772,0.728 0.273,0.278 0.552,0.587 0.82,0.912 0.041,0.049 0.079,0.1 0.12,0.15 0,0 0.713,0.889 0.707,1.755 0,0 0.99,-1.386 2.216,-2.587 -0.255,-1.737 -1.853,-2.622 -1.655,-2.574 z"
         inkscape:connector-curvature="0" />
      <path
         id="path963"
         style="fill:#242f60;fill-rule:nonzero"
         d="m 181.035,29.753 c 2.752,0.444 6.663,-1.275 8.23,-3.056 -0.244,-0.483 -1.011,-0.675 -1.451,-0.608 -2.086,1.558 -6.531,3.548 -9.384,1.381 0,0 -2.686,-1.974 -0.881,-5.168 0,0 0.508,1.627 1.447,1.723 0,0 0.211,-2.688 1.805,-3.195 0,0 -2.22,-0.846 -3.991,0.936 -2.176,2.19 -0.588,7.209 4.225,7.987 z"
         inkscape:connector-curvature="0" />
      <path
         id="path965"
         style="fill:#242f60;fill-rule:nonzero"
         d="m 197.621,46.181 c 2.526,-0.409 5.017,0.755 5.017,0.755 0.787,-2.775 -0.331,-3.603 -0.331,-3.603 -2.343,2.356 -4.686,2.848 -4.686,2.848 z"
         inkscape:connector-curvature="0" />
      <path
         id="path967"
         style="fill:#242f60;fill-rule:nonzero"
         d="m 206.721,43.614 c 0,0 0.588,-2.512 -1.356,-3.661 0,0 -1.029,1.758 -2.071,2.635 0,0 0.75,1.042 0.466,2.003 0,0 1.639,-1.488 2.961,-0.977 z"
         inkscape:connector-curvature="0" />
      <path
         id="path969"
         style="fill:#242f60;fill-rule:nonzero"
         d="m 213.467,37.493 c 0,0 0.842,-3.194 3.822,-3.194 0,0 -1.651,-2.729 -5.67,-2.806 -4.016,-0.079 -4.31,3.171 -4.31,3.171 v 0.093 c 0.002,-0.043 2.316,-1.328 4.732,0.698 0,0 1.26,0.878 1.426,2.038 z"
         inkscape:connector-curvature="0" />
      <path
         id="path971"
         style="fill:#242f60;fill-rule:nonzero"
         d="m 189.352,40.528 c -0.239,0.21 -0.501,0.474 -0.772,0.762 -0.271,0.287 -0.548,0.603 -0.806,0.933 -0.523,0.654 -0.983,1.349 -1.292,1.883 -0.068,0.115 -0.124,0.219 -0.179,0.317 -0.009,0.029 -0.02,0.059 -0.028,0.088 -0.305,1.014 -0.535,2.029 -0.633,2.979 0.221,-0.261 0.452,-0.527 0.697,-0.783 0.299,-0.317 0.612,-0.618 0.915,-0.889 0.303,-0.269 0.591,-0.512 0.853,-0.703 0.254,-0.197 0.474,-0.348 0.63,-0.451 0.155,-0.105 0.244,-0.163 0.244,-0.163 0,0 -0.073,0.077 -0.201,0.213 -0.129,0.134 -0.308,0.329 -0.509,0.575 -0.206,0.239 -0.428,0.533 -0.656,0.853 -0.227,0.32 -0.456,0.67 -0.666,1.029 -0.426,0.715 -0.783,1.46 -1.014,2.028 -0.093,0.221 -0.159,0.403 -0.215,0.555 0.145,0.667 0.419,1.25 0.858,1.711 -0.012,-0.03 0.142,-0.316 0.392,-0.737 0.528,-0.939 1.114,-1.825 1.729,-2.715 -0.002,-0.002 -0.003,-0.003 -0.003,-0.003 0.95,-1.418 2.231,-2.952 2.653,-3.164 0,0 -0.917,-2.894 -0.036,-5.832 0.392,-1.881 2.094,-4.924 2.274,-6.984 -0.563,0.7 -0.998,1.192 -2.274,1.363 l -0.24,0.684 v -0.002 l -0.969,1.862 c 0.49,-0.211 0.976,-0.379 1.359,-0.484 0.226,-0.066 0.416,-0.107 0.55,-0.135 0.133,-0.029 0.207,-0.046 0.207,-0.046 0,0 -0.066,0.04 -0.184,0.108 -0.118,0.065 -0.284,0.163 -0.473,0.291 -0.387,0.251 -0.871,0.618 -1.312,1.025 -0.444,0.406 -0.846,0.844 -1.121,1.186 -0.044,0.054 -0.079,0.099 -0.118,0.147 -0.144,0.274 -0.296,0.567 -0.467,0.909 -0.265,0.531 -0.546,1.123 -0.833,1.765 -0.132,0.295 -0.262,0.6 -0.391,0.91 0.314,-0.25 0.635,-0.485 0.945,-0.694 0.339,-0.227 0.66,-0.43 0.947,-0.585 0.28,-0.162 0.52,-0.283 0.691,-0.363 0.167,-0.082 0.264,-0.129 0.264,-0.129 0,0 -0.083,0.066 -0.228,0.184 -0.148,0.116 -0.354,0.285 -0.588,0.502 z"
         inkscape:connector-curvature="0" />
      <path
         id="path973"
         style="fill:#242f60;fill-rule:nonzero"
         d="m 224.562,29.035 c -0.036,-1.596 0.344,-3.428 1.619,-4.295 2.813,-1.915 10.448,-1.52 10.448,-1.52 -1.589,-0.636 -17.269,-3.197 -25.367,4.469 0,0 7.413,-3.876 12.763,0.819 0.198,0.126 0.372,0.406 0.537,0.527 z"
         inkscape:connector-curvature="0" />
      <path
         id="path975"
         style="fill:#242f60;fill-rule:nonzero"
         d="m 222.972,29.035 c 0,0 -1.952,-1.219 -4.168,-1.623 -2.784,-0.507 -7.753,0.395 -9.715,3.598 4.997,-1.405 7.51,0.638 8.963,2.108 0.353,-3.588 4.166,-3.922 4.92,-4.083 z"
         inkscape:connector-curvature="0" />
      <path
         id="path977"
         style="fill:#242f60;fill-rule:nonzero"
         d="m 207.569,40.996 c 1.305,-2.993 4.971,-2.839 4.971,-2.839 0.01,-0.555 -1.03,-2.261 -3.292,-2.782 -2.5,-0.577 -3.609,3.4 -3.609,3.4 1.734,0.296 1.93,2.221 1.93,2.221 z"
         inkscape:connector-curvature="0" />
      <path
         id="path979"
         style="fill:#242f60;fill-rule:nonzero"
         d="m 191.926,45.624 c -0.514,0.149 -0.935,0.842 -0.935,0.842 -1.418,1.877 -2.327,3.339 -3.695,5.726 -1.705,2.754 -3.361,6.738 -5.546,8.825 -0.194,0.182 -0.276,0.295 -0.585,0.404 -0.309,0.111 -0.679,-0.44 -0.679,-0.44 -0.969,-1.427 -2.729,-1.26 -2.729,-1.26 -1.902,0.324 -1.976,0.926 -1.976,0.926 0.409,-0.045 1.648,0.443 1.648,0.443 0.004,0.293 0.503,0.564 0.503,0.564 -1.155,-0.214 -2.131,0.455 -2.131,0.455 -1.764,1.216 -1.142,2.549 -1.142,2.549 0.003,-1.048 1.535,-1.291 1.535,-1.291 0.667,0.611 3.263,-0.448 3.263,-0.448 l -2.285,1.873 c -0.859,1.147 -0.35,2.294 -0.35,2.294 0.035,-0.845 1.194,-1.135 1.194,-1.135 0.778,-0.082 1.048,-0.476 1.048,-0.476 1.407,-0.3 1.516,-1.749 1.516,-1.749 2.136,-0.892 4.297,-0.417 4.297,-0.417 1.323,0.764 2.247,1.362 2.247,1.362 l 0.251,-0.388 c 0.985,-0.211 1.462,0.986 1.462,0.986 0.336,-1.58 -0.91,-2.11 -0.91,-2.11 -0.508,-0.603 -1.459,-0.567 -1.459,-0.567 l -1.455,-0.409 c -0.115,-0.181 -0.222,-0.38 -0.309,-0.622 -0.176,-1.292 0.759,-2.511 1.384,-3.487 1.918,-2.089 4.895,-2.926 6.285,-4.444 1.235,-1.386 2.477,-3.561 2.273,-6.355 -0.083,-1.206 -2.225,-1.771 -2.72,-1.651 z"
         inkscape:connector-curvature="0" />
      <path
         id="path981"
         style="fill:#242f60;fill-rule:nonzero"
         d="m 176.34,37.43 c 0.892,2.138 0.417,4.298 0.417,4.298 -0.765,1.323 -1.363,2.247 -1.363,2.247 l 0.389,0.251 c 0.21,0.984 -0.986,1.462 -0.986,1.462 1.581,0.335 2.11,-0.91 2.11,-0.91 0.603,-0.509 0.568,-1.459 0.568,-1.459 l 0.408,-1.455 c 0.181,-0.116 0.379,-0.223 0.623,-0.309 0.784,-0.411 1.444,0.061 1.941,0.5 0.182,0.172 0.366,0.344 0.543,0.535 1.068,0.97 1.518,2.447 2.289,3.607 l -0.003,0.008 1.122,1.788 c 0.058,-1.092 0.313,-2.287 0.672,-3.481 0.193,-0.639 0.413,-1.272 0.649,-1.893 h -0.927 c -0.047,-0.007 -0.097,-0.007 -0.152,0 -1.297,-0.333 -2.31,-1.531 -3.529,-2.556 -0.378,-0.352 -1.289,-1.024 -2.028,-1.559 -0.215,-0.154 -0.328,-0.179 -0.439,-0.488 -0.11,-0.309 0.442,-0.68 0.442,-0.68 1.425,-0.968 1.258,-2.729 1.258,-2.729 -0.323,-1.902 -0.925,-1.975 -0.925,-1.975 0.046,0.409 -0.444,1.647 -0.444,1.647 -0.292,0.005 -0.562,0.504 -0.562,0.504 0.213,-1.155 -0.456,-2.131 -0.456,-2.131 -1.217,-1.765 -2.55,-1.142 -2.55,-1.142 1.048,0.003 1.293,1.535 1.293,1.535 -0.611,0.668 0.447,3.263 0.447,3.263 l -1.872,-2.285 c -1.148,-0.86 -2.296,-0.351 -2.296,-0.351 0.845,0.036 1.135,1.196 1.135,1.196 0.083,0.776 0.477,1.047 0.477,1.047 0.301,1.407 1.749,1.515 1.749,1.515 z"
         inkscape:connector-curvature="0" />
      <path
         id="path983"
         style="fill:#242f60;fill-rule:nonzero"
         d="m 201.874,42.271 0.002,10e-4 c 2.003,-1.676 3.673,-5.742 4.154,-7.345 5.744,-19.119 31.642,-12.242 31.642,-12.242 -7.972,-3.087 -16.007,-2.056 -16.007,-2.056 0,0 -11.954,0.594 -16.351,10.466 -2.635,5.912 -3.967,7.951 -4.526,8.598 -0.001,0 -0.001,-0.002 -0.002,-0.003 -3.066,3.239 -5.884,2.928 -5.884,2.928 2.954,-0.843 4.437,-2.99 4.822,-3.628 0,0 0.383,-0.613 0.405,-0.833 -0.258,0.039 -0.941,0.238 -1.247,0.242 -0.92,0.035 -1.742,-0.741 -1.926,-1.811 -0.678,0.733 -1.164,1.569 -1.164,1.569 0.092,-1.022 0.836,-2.1 1.381,-2.763 0.128,-0.189 0.292,-0.367 0.461,-0.526 0.074,-0.076 0.12,-0.123 0.12,-0.123 l 0.005,0.009 c 0.372,-0.328 0.728,-0.548 0.728,-0.548 0,0 -1.383,-0.813 -1.449,-2.27 -0.772,0.703 -1.358,1.571 -1.358,1.571 0.178,-1.116 1.145,-2.245 1.733,-2.841 0.492,-0.649 1.29,-0.857 1.29,-0.857 0,0 -1.474,-0.296 -1.235,-2.83 -0.582,0.608 -0.99,1.212 -0.99,1.212 0.145,-0.914 0.822,-1.836 1.384,-2.468 0.466,-0.764 1.163,-1.031 1.163,-1.031 -0.144,-0.102 -0.275,-0.213 -0.398,-0.332 -0.151,-0.127 -0.331,-0.284 -0.53,-0.472 -0.275,-0.265 -0.584,-0.59 -0.875,-0.972 -0.284,-0.387 -0.567,-0.829 -0.71,-1.336 -0.078,-0.248 -0.111,-0.515 -0.095,-0.774 0.007,-0.26 0.089,-0.508 0.191,-0.727 0.111,-0.216 0.247,-0.409 0.404,-0.562 0.147,-0.164 0.315,-0.286 0.466,-0.399 0.31,-0.216 0.591,-0.359 0.79,-0.449 0.199,-0.089 0.313,-0.14 0.313,-0.14 0,0 -0.11,0.057 -0.303,0.159 -0.192,0.103 -0.306,0.17 -0.597,0.401 -0.141,0.12 -0.296,0.249 -0.425,0.413 -0.143,0.156 -0.256,0.347 -0.347,0.551 -0.08,0.207 -0.138,0.433 -0.13,0.666 0,0.233 0.045,0.467 0.13,0.69 0.227,0.604 0.44,1.066 0.85,1.478 -0.164,-0.501 -0.181,-0.909 -0.122,-1.481 0.158,-1.8 2.801,-2.935 2.801,-2.935 0,0 -0.304,-0.369 -0.964,-0.442 0,0 -1.853,-0.481 -5.729,2.063 -1.947,-1.11 -4.855,-0.581 -6.754,1.282 0,0 -2.507,-1.185 -5.683,1.79 l 3.169,0.921 c 0.938,0.47 1.096,0.622 1.088,1.783 1.431,-0.904 2.668,-0.74 3.736,-0.228 0.632,0.312 1.975,1.218 1.531,3.003 -0.146,0.256 -0.302,0.5 -0.5,0.703 -1.262,1.354 -3.215,1.437 -4.777,1.598 -0.523,0.079 -1.039,1.066 -1.266,1.595 l 0.442,-0.105 c 2.418,-0.704 4.302,0.74 6.695,-0.258 1.907,-1.129 2.513,-2.469 2.492,-4.786 -0.275,-3.431 -1.531,-4.294 -2.021,-4.451 -0.993,-0.249 -1.616,0.795 -2.169,0.456 -0.665,-0.41 -0.409,-1.449 -0.409,-1.449 0.659,-0.261 1.969,0.149 2.501,0.351 0.705,0.364 2.524,1.256 2.844,5.216 0.149,1.214 0.109,2.104 0.097,3.576 -0.38,4.303 -2.176,5.565 -2.55,10.183 0.072,2.645 0.307,3.085 0.856,3.523 1.014,0.812 4.25,0.583 5.756,-0.213 1.144,-0.605 2.163,-1.415 3.051,-2.311 z"
         inkscape:connector-curvature="0" />
      <path
         id="path985"
         style="fill:#242f60;fill-rule:nonzero"
         d="m 195.634,49.905 c 0.002,-0.005 0.005,-0.012 0.01,-0.024 -0.005,0.01 -0.008,0.017 -0.01,0.024 z"
         inkscape:connector-curvature="0" />
      <path
         id="path987"
         style="fill:#242f60;fill-rule:nonzero"
         d="m 195.634,49.905 c -0.004,0.012 -0.004,0.01 0,0 z"
         inkscape:connector-curvature="0" />
      <path
         id="path989"
         style="fill:#242f60;fill-rule:nonzero"
         d="m 195.644,49.881 c 0.008,-0.018 0.015,-0.038 0.02,-0.048 -0.008,0.018 -0.014,0.036 -0.02,0.048 z"
         inkscape:connector-curvature="0" />
      <path
         id="path991"
         style="fill:#242f60;fill-rule:nonzero"
         d="m 244.753,58.994 c -0.728,-0.203 -1.453,0.371 -1.453,0.371 l -1.493,0.549 c -0.084,0.079 -1.157,-0.101 -1.258,-0.027 -0.268,-0.652 -0.563,-1.583 -0.975,-3.34 l -0.003,-0.015 c -0.06,-0.251 -0.119,-0.517 -0.183,-0.803 h -0.007 l -0.342,-1.456 -0.323,-2.67 c 0,0 -0.019,-0.07 -0.053,-0.184 -0.456,-2.117 -1.276,-3.142 -1.339,-3.244 l -0.001,0.003 c -2.339,-3.757 -7.24,-5.407 -7.295,-5.418 0.219,0.042 4.493,0.739 7.162,3.864 1.226,-0.27 2.405,-0.711 3.59,-1.374 5.062,-2.834 8.013,-10.355 3.89,-15.501 -4.069,-5.08 -12.229,-2.76 -13.122,1.841 -0.724,3.744 2.105,5.724 2.105,5.724 -0.679,-2.404 2.412,-5.029 2.412,-5.029 -0.879,-1.069 -3.268,-0.26 -3.268,-0.26 2.414,-5.029 6.989,-3.466 6.989,-3.466 6.95,2.67 5.415,11.358 -0.945,13.724 -2.077,0.773 -4.193,0.482 -6.067,-0.243 -2.739,-1.377 -1.439,-5.522 -1.439,-5.522 0,0 -1.329,1.586 -2.99,1.473 -0.003,0 -0.003,-10e-4 -0.005,-10e-4 0.149,0.948 0.667,1.962 0.667,1.962 -0.937,-0.741 -1.383,-2.675 -1.383,-2.675 h 0.001 c -0.435,-1.067 -0.384,-2.891 -0.552,-2.33 -0.243,0.799 -0.889,2.127 -2.853,2.287 -0.018,0.002 -0.035,-0.004 -0.053,-0.003 0.356,0.723 0.842,1.337 0.842,1.337 -0.684,-0.349 -1.267,-1.222 -1.596,-1.8 -0.619,-0.862 -0.836,-2.615 -0.836,-2.615 -1.404,2.605 -5.427,3.164 -6.969,3.255 -2.343,-0.282 -1.724,2.83 -1.724,2.83 -0.846,-0.447 -1.041,-1.056 -2.13,-1.069 -0.496,-0.026 -1.489,0.253 -1.925,0.592 -1.23,0.742 -2.181,1.979 -2.296,5.227 -1.173,-0.947 -2.367,-0.396 -3.552,0.478 0,0 -0.298,1.682 -1.221,2.513 -1.478,-0.807 -3.135,-1.115 -3.509,-1.126 l 0.006,-0.001 c 0,0 -1.34,-0.165 -3.346,0.084 0,0 0.29,1.585 -0.244,2.887 3.014,2.012 7.789,-0.104 10.436,-1.593 3.018,-1.663 5.852,-4.061 9.022,-5.28 1.591,-0.716 3.279,-0.426 4.627,0.509 1.932,1.342 4.127,5.084 6.436,7.325 0.13,0.127 1.52,2.003 6.327,2.236 0,0 2.521,-0.049 4.402,2.937 0.086,0.143 0.174,0.295 0.266,0.456 0.067,0.122 0.136,0.237 0.2,0.368 0.445,0.839 0.908,1.897 1.269,3.23 -0.053,0.369 -0.119,0.77 -0.227,1.117 -0.055,0.197 -0.131,0.356 -0.213,0.499 -0.002,0 -0.004,-0.001 -0.005,-0.001 -0.053,0.324 -0.468,-0.152 -0.468,-0.152 -1.539,-0.614 -2.825,0.532 -2.825,0.532 -1.312,1.355 -1.039,1.891 -1.039,1.891 0.293,-0.271 1.531,-0.581 1.531,-0.581 0.164,0.237 0.702,0.173 0.702,0.173 -1.021,0.487 -1.418,1.595 -1.418,1.595 -0.716,2.008 0.501,2.744 0.501,2.744 -0.57,-0.862 0.494,-1.939 0.494,-1.939 0.857,0.118 2.31,-2.237 2.31,-2.237 l -0.765,2.844 c -0.045,1.433 0.982,2.082 0.982,2.082 -0.435,-0.713 0.314,-1.616 0.314,-1.616 0.562,-0.512 0.559,-0.99 0.559,-0.99 0.937,-1.054 0.229,-2.302 0.229,-2.302 -0.131,-1.729 3.135,-2.804 3.135,-2.804 1.453,-0.133 2.487,-0.634 2.487,-0.634 0.656,-0.738 1.684,-0.029 1.684,-0.029 -0.602,-1.488 -1.867,-1.209 -1.867,-1.209 z"
         inkscape:connector-curvature="0" />
      <path
         id="path993"
         style="fill:#242f60;fill-rule:nonzero"
         d="m 258.894,74.901 -0.136,0.047 c -1.588,1.054 -12.893,7.535 -41.653,-0.883 -35.037,-10.257 -56.402,7.381 -56.402,7.381 l 0.277,0.066 c 3.141,-1.64 24.587,-12.026 56.87,-2.586 31.212,9.137 41.044,-4.025 41.044,-4.025 z"
         inkscape:connector-curvature="0" />
      <path
         id="path995"
         style="fill:#242f60;fill-rule:nonzero"
         d="m 209.786,176.523 c 0,0 55.849,-14.268 62.707,-59.134 l -0.256,0.299 c -5.019,32.689 -62.451,50.554 -62.451,50.554 h 0.027 c 0,0 -57.434,-17.865 -62.451,-50.554 l -0.255,-0.299 c 6.855,44.866 62.706,59.134 62.706,59.134"
         inkscape:connector-curvature="0" />
      <path
         id="path997"
         style="fill:#242f60;fill-rule:nonzero"
         d="m 209.772,9.775 c 21.193,0 56.168,8.929 59.372,14.854 1.571,2.443 2.856,15.138 3.111,17.376 l 0.264,0.392 c 0,0 0.605,-12.902 0.386,-16.813 C 272.454,17.493 243.941,3.086 209.772,3.086 h 0.054 c -34.168,0 -62.68,14.407 -63.132,22.498 -0.219,3.911 0.386,16.813 0.386,16.813 l 0.263,-0.392 c 0.255,-2.238 1.54,-14.933 3.112,-17.376 3.203,-5.925 38.178,-14.854 59.371,-14.854"
         inkscape:connector-curvature="0" />
    </g>
  </g>
</svg>
